# xmcd
#
# Track frame offsets: 
#        150
#        11190
#        22467
#        38620
#        50085
#        62238
#        76164
#        84207
#        96731
#        102026
#
# Disc length: 1587 seconds
#
# Revision: 0
# Processed by: cddbd v1.5.2PL0 Copyright (c) Steve Scherf et al.
# Submitted via: ExactAudioCopy v0.99pb4
#
DISCID=7f06310a
DTITLE=Hollywood J - One In The Chamber (The Underground Tape 01-04)
DYEAR=2010
DGENRE=Gangsta Rap
TTITLE0=One In Tha Chamber
TTITLE1=Ridin' Steama
TTITLE2=Don't Fuck With Me
TTITLE3=Silent Night
TTITLE4=Easily Executed
TTITLE5=No More Room In Hell
TTITLE6=Dedication
TTITLE7=Pimps
TTITLE8=In The Hood
TTITLE9=Smith and Wesson Feat Trigg Mafia
EXTD=
EXTT0=
EXTT1=
EXTT2=
EXTT3=
EXTT4=
EXTT5=
EXTT6=
EXTT7=
EXTT8=
EXTT9=
PLAYORDER=
